<?xml version="1.0" standalone="no"?>
<!DOCTYPE svg PUBLIC "-//W3C//DTD SVG 20010904//EN"
 "http://www.w3.org/TR/2001/REC-SVG-20010904/DTD/svg10.dtd">
<svg version="1.0" xmlns="http://www.w3.org/2000/svg"
 width="500.000000pt" height="500.000000pt" viewBox="0 0 500.000000 500.000000"
 preserveAspectRatio="xMidYMid meet">

<g transform="translate(0.000000,500.000000) scale(0.100000,-0.100000)"
fill="#000000" stroke="none">
<path d="M2301 3799 c-201 -42 -362 -128 -502 -268 -136 -137 -220 -281 -271
-469 -18 -64 -21 -104 -21 -232 0 -134 4 -169 26 -255 91 -347 361 -622 702
-715 114 -31 341 -39 454 -16 190 39 355 123 488 249 329 312 412 770 213
1172 -201 407 -649 626 -1089 534z m413 -361 c203 -67 336 -254 336 -474 0
-220 -136 -406 -348 -476 -70 -23 -87 -23 -112 2 -17 17 -20 33 -20 124 0 120
7 133 82 160 172 63 169 318 -4 390 -104 44 -228 -9 -272 -116 -14 -32 -16
-96 -16 -410 0 -355 -1 -375 -20 -406 -25 -41 -54 -52 -137 -52 -61 0 -67 2
-99 34 l-34 34 0 387 c0 320 3 398 16 449 48 186 215 342 404 376 61 11 152 2
224 -22z"/>
<path d="M2446 1627 c-21 -16 -50 -129 -35 -135 5 -2 9 -69 9 -148 l0 -144 40
0 40 0 0 139 c0 83 4 142 10 146 13 8 13 62 0 70 -8 5 -7 11 0 20 6 8 10 24 8
37 -4 28 -43 36 -72 15z"/>
<path d="M1490 1350 l0 -220 45 0 45 0 0 40 c0 38 1 39 30 34 43 -9 75 2 88
31 16 34 16 269 1 298 -7 12 -17 25 -23 29 -17 12 -71 9 -84 -4 -9 -9 -12 -9
-12 0 0 8 -17 12 -45 12 l-45 0 0 -220z m140 44 c0 -98 -13 -143 -35 -124 -20
16 -22 209 -3 228 24 24 38 -16 38 -104z"/>
<path d="M1775 1545 c-16 -15 -25 -36 -25 -55 0 -28 2 -30 39 -30 33 0 40 4
43 23 5 37 33 27 33 -12 0 -31 -4 -35 -40 -48 -65 -22 -80 -44 -80 -117 0 -49
5 -69 19 -85 23 -25 63 -27 88 -4 17 15 18 15 18 0 0 -13 10 -17 46 -17 l45 0
-3 161 -3 161 -28 24 c-40 34 -118 34 -152 -1z m86 -278 c-18 -18 -31 4 -31
53 0 33 6 54 18 66 16 17 17 15 20 -46 2 -34 -1 -67 -7 -73z"/>
<path d="M1990 1385 l0 -185 45 0 44 0 3 148 3 147 28 3 c24 3 27 8 27 38 0
37 -13 43 -42 17 -17 -15 -18 -15 -18 0 0 13 -10 17 -45 17 l-45 0 0 -185z"/>
<path d="M2196 1549 c-19 -15 -26 -30 -26 -55 0 -33 1 -34 39 -34 33 0 40 4
43 23 5 37 33 27 33 -12 0 -31 -4 -35 -40 -48 -60 -20 -85 -54 -85 -114 0 -50
13 -87 34 -101 23 -16 65 -8 80 14 l16 22 0 -22 c0 -19 5 -22 40 -22 l40 0 0
160 c0 157 -1 161 -25 185 -32 33 -110 35 -149 4z m83 -275 c-19 -23 -29 -6
-29 51 0 41 4 56 18 64 15 9 17 4 20 -45 2 -32 -2 -62 -9 -70z"/>
<path d="M2550 1427 c0 -143 9 -204 32 -219 24 -14 76 -9 87 10 10 16 10 16
11 0 0 -15 9 -18 45 -18 l45 0 0 185 0 185 -45 0 -44 0 -3 -152 c-3 -128 -5
-153 -18 -153 -13 0 -15 25 -18 153 l-3 152 -44 0 -45 0 0 -143z"/>
<path d="M2828 1540 c-27 -28 -30 -36 -25 -73 4 -31 14 -49 39 -71 95 -81 105
-99 74 -125 -12 -10 -17 -8 -25 8 -6 11 -11 27 -11 35 0 12 -10 16 -40 16 -39
0 -40 -1 -40 -36 0 -52 44 -94 100 -94 62 0 97 23 110 71 17 61 -1 101 -66
151 -40 30 -54 47 -54 65 0 30 21 27 35 -5 7 -17 18 -22 47 -22 36 0 38 2 38
30 0 50 -38 80 -100 80 -44 0 -56 -4 -82 -30z"/>
<path d="M3076 1549 c-19 -15 -26 -30 -26 -55 0 -33 1 -34 39 -34 33 0 40 4
43 23 5 37 33 27 33 -12 0 -31 -4 -35 -40 -48 -60 -20 -85 -54 -85 -114 0 -50
13 -87 34 -101 23 -16 65 -8 80 14 l16 22 0 -22 c0 -19 5 -22 40 -22 l40 0 0
160 c0 157 -1 161 -25 185 -32 33 -110 35 -149 4z m89 -267 c-10 -41 -30 -18
-33 38 -3 43 1 57 15 68 17 12 18 9 21 -34 2 -26 1 -58 -3 -72z"/>
<path d="M3334 1555 c-37 -25 -46 -65 -42 -190 3 -114 4 -117 31 -141 54 -46
148 -28 174 33 19 47 15 236 -7 270 -27 42 -114 58 -156 28z m81 -171 c0 -99
-3 -119 -15 -119 -12 0 -16 20 -18 109 -3 117 1 140 21 133 9 -3 12 -36 12
-123z"/>
<path d="M1240 1000 c0 -37 -2 -40 -19 -30 -44 23 -82 3 -95 -52 -7 -29 8 -78
27 -90 18 -12 62 -9 75 4 9 9 12 9 12 0 0 -7 5 -12 10 -12 6 0 10 43 10 110 0
67 -4 110 -10 110 -5 0 -10 -18 -10 -40z m-6 -72 c20 -58 -28 -112 -70 -78
-17 15 -19 81 -2 98 22 22 62 10 72 -20z"/>
<path d="M1830 933 l0 -108 47 -3 c61 -3 83 16 83 75 0 30 -6 49 -20 63 -22
22 -60 26 -78 8 -9 -9 -12 -3 -12 30 0 23 -4 42 -10 42 -6 0 -10 -42 -10 -107z
m104 -5 c20 -58 -28 -112 -70 -78 -17 15 -19 81 -2 98 22 22 62 10 72 -20z"/>
<path d="M2360 998 c0 -33 -3 -39 -12 -30 -18 18 -56 14 -78 -8 -24 -24 -27
-86 -4 -118 17 -25 71 -31 92 -10 9 9 12 9 12 0 0 -7 5 -12 10 -12 6 0 10 43
10 110 0 91 -3 110 -15 110 -11 0 -15 -11 -15 -42z m-11 -52 c7 -8 11 -34 9
-58 -3 -42 -4 -43 -38 -43 -30 0 -35 4 -43 32 -17 57 39 109 72 69z"/>
<path d="M3330 930 c0 -91 3 -110 15 -110 12 0 15 19 15 110 0 91 -3 110 -15
110 -12 0 -15 -19 -15 -110z"/>
<path d="M1312 1019 c2 -6 8 -10 13 -10 5 0 11 4 13 10 2 6 -4 11 -13 11 -9 0
-15 -5 -13 -11z"/>
<path d="M1752 1021 c4 -13 18 -16 19 -4 0 4 -5 9 -11 12 -7 2 -11 -2 -8 -8z"/>
<path d="M2182 1019 c2 -6 8 -10 13 -10 5 0 11 4 13 10 2 6 -4 11 -13 11 -9 0
-15 -5 -13 -11z"/>
<path d="M3402 1019 c2 -6 8 -10 13 -10 5 0 11 4 13 10 2 6 -4 11 -13 11 -9 0
-15 -5 -13 -11z"/>
<path d="M1527 987 c-10 -15 -13 -27 -7 -27 6 0 10 -25 10 -58 0 -63 11 -82
47 -82 30 0 30 18 1 22 -20 3 -23 10 -26 61 -3 55 -2 57 23 57 14 0 25 5 25
10 0 6 -11 10 -24 10 -15 0 -26 7 -28 17 -2 14 -7 12 -21 -10z"/>
<path d="M1316 973 c-3 -3 -6 -39 -6 -80 0 -58 3 -73 15 -73 12 0 15 15 15 74
0 69 -8 95 -24 79z"/>
<path d="M1396 967 c-27 -20 -16 -49 29 -74 53 -30 52 -48 -3 -48 -27 0 -42
-4 -42 -12 0 -9 16 -13 45 -13 35 0 47 5 55 21 16 29 7 45 -40 69 -49 25 -47
45 4 44 23 -1 35 3 33 10 -5 17 -59 19 -81 3z"/>
<path d="M1630 900 c0 -47 4 -80 10 -80 6 0 10 21 10 48 0 53 21 92 51 92 10
0 19 5 19 10 0 16 -32 12 -52 -7 -17 -15 -18 -15 -18 0 0 10 -4 17 -10 17 -6
0 -10 -33 -10 -80z"/>
<path d="M1750 900 c0 -47 4 -80 10 -80 6 0 10 33 10 80 0 47 -4 80 -10 80 -6
0 -10 -33 -10 -80z"/>
<path d="M2003 965 c-10 -27 3 -126 18 -136 8 -5 35 -8 62 -7 l47 2 0 78 c0
45 -4 78 -10 78 -6 0 -10 -26 -10 -59 0 -64 -13 -85 -52 -79 -21 3 -23 9 -26
71 -3 63 -15 86 -29 52z"/>
<path d="M2190 900 c0 -47 4 -80 10 -80 6 0 10 33 10 80 0 47 -4 80 -10 80 -6
0 -10 -33 -10 -80z"/>
<path d="M2452 957 c-47 -50 -17 -137 48 -137 43 0 70 31 70 80 0 73 -71 107
-118 57z m82 -13 c37 -37 10 -108 -39 -102 -23 2 -31 10 -39 35 -17 60 38 107
78 67z"/>
<path d="M2620 901 c0 -47 4 -81 10 -81 6 0 10 24 10 54 0 56 16 86 46 86 8 0
14 5 14 10 0 12 -20 13 -40 0 -9 -5 -19 -5 -27 2 -10 8 -13 -6 -13 -71z"/>
<path d="M2752 973 c-23 -9 -2 -22 27 -17 22 5 32 2 40 -14 13 -25 6 -32 -35
-32 -43 0 -72 -37 -54 -69 12 -24 68 -29 88 -9 9 9 12 9 12 0 0 -7 5 -12 10
-12 17 0 12 126 -6 144 -15 15 -55 20 -82 9z m73 -83 c3 -5 1 -19 -5 -30 -14
-26 -63 -24 -68 3 -5 25 59 49 73 27z"/>
<path d="M2990 960 c-13 -13 -20 -33 -20 -60 0 -49 27 -80 70 -80 64 0 93 78
49 134 -25 32 -70 35 -99 6z m88 -33 c20 -41 4 -81 -33 -85 -34 -4 -55 18 -55
59 0 59 63 78 88 26z"/>
<path d="M3157 973 c-4 -3 -7 -39 -7 -80 0 -57 3 -73 15 -73 10 0 15 16 17 61
2 46 8 65 21 73 33 21 52 -4 55 -73 2 -33 7 -61 13 -61 6 0 9 29 7 72 -3 69
-4 73 -31 82 -20 7 -34 7 -49 -3 -15 -9 -23 -10 -28 -2 -3 6 -9 8 -13 4z"/>
<path d="M3410 900 c0 -47 4 -80 10 -80 6 0 10 33 10 80 0 47 -4 80 -10 80 -6
0 -10 -33 -10 -80z"/>
<path d="M3480 900 c0 -47 4 -80 10 -80 6 0 10 19 10 43 0 63 10 87 36 93 39
10 54 -11 54 -77 0 -33 4 -59 10 -59 17 0 12 126 -6 144 -18 18 -47 20 -75 6
-13 -7 -19 -7 -19 0 0 5 -4 10 -10 10 -6 0 -10 -33 -10 -80z"/>
<path d="M3675 955 c-31 -30 -32 -73 -4 -109 18 -23 28 -27 62 -24 22 2 42 8
44 14 2 6 -10 8 -32 6 -37 -4 -65 11 -65 34 0 10 14 14 50 14 48 0 50 1 50 28
0 59 -62 81 -105 37z m73 -7 c24 -24 13 -38 -28 -38 -26 0 -40 5 -40 13 0 18
21 37 40 37 9 0 21 -5 28 -12z"/>
</g>
</svg>
